<?xml version="1.0" standalone="no"?>
<!DOCTYPE svg PUBLIC "-//W3C//DTD SVG 20010904//EN"
 "http://www.w3.org/TR/2001/REC-SVG-20010904/DTD/svg10.dtd">
<svg version="1.0" xmlns="http://www.w3.org/2000/svg"
 width="800.000000pt" height="800.000000pt" viewBox="0 0 800.000000 800.000000"
 preserveAspectRatio="xMidYMid meet">
<metadata>
Created by potrace 1.11, written by Peter Selinger 2001-2013
</metadata>
<g transform="translate(0.000000,800.000000) scale(0.100000,-0.100000)"
fill="#000000" stroke="none">
<path d="M0 4000 l0 -4000 4000 0 4000 0 0 4000 0 4000 -4000 0 -4000 0 0
-4000z m4311 2245 c667 -64 1154 -323 1451 -770 91 -138 236 -450 218 -469 -5
-4 -808 -226 -820 -226 -3 0 -12 17 -19 38 -96 270 -328 499 -623 612 -332
128 -802 113 -1114 -34 -383 -182 -597 -524 -676 -1086 -8 -61 -13 -191 -13
-360 1 -291 12 -394 66 -617 134 -552 482 -879 1021 -959 133 -19 385 -14 508
11 244 49 494 193 646 372 80 95 136 184 208 333 l61 127 75 -28 c41 -16 221
-84 400 -151 179 -67 329 -125 334 -129 22 -19 -165 -369 -279 -522 -294 -396
-763 -662 -1312 -744 -168 -25 -689 -26 -850 -1 -287 44 -486 104 -708 213
-397 195 -667 460 -860 845 -173 345 -252 700 -262 1181 -12 528 64 936 242
1304 212 439 527 727 1000 913 338 133 850 191 1306 147z"/>
</g>
</svg>
